<svg xmlns="http://www.w3.org/2000/svg" width="960" height="620" viewBox="0 0 960 620" role="img" aria-labelledby="title desc">
<title id="title">Agently architecture</title>
<desc id="desc">Web, native mobile, CLI and custom clients connect through authenticated AG-UI runs and application APIs to Agently Core. Core executes agents using model providers, tools and durable storage. Workspace resources configure behavior and UI metadata. Forge renders the web and native UI.</desc>
<defs><marker id="arrow" viewBox="0 0 10 10" refX="8" refY="5" markerWidth="7" markerHeight="7" orient="auto-start-reverse"><path d="M 0 0 L 10 5 L 0 10 z" fill="#64748b"/></marker></defs>
<style>
text{font-family:Arial,Helvetica,sans-serif;fill:#172538}
.heading{font-size:21px;font-weight:700}.label{font-size:17px;font-weight:700}.detail{font-size:14px;fill:#526176}.section{font-size:12px;font-weight:700;letter-spacing:1.5px;fill:#526176}
.link{fill:none;stroke:#64748b;stroke-width:2;marker-end:url(#arrow)}
</style>
<rect width="960" height="620" rx="16" fill="#ffffff"/>
<text x="32" y="40" class="heading">Agently architecture</text>
<text x="32" y="65" class="detail">Configurable agents, durable execution and interactive applications</text>

<text x="266" y="104" class="section">CLIENTS</text>
<rect x="266" y="118" width="148" height="82" rx="10" fill="#f1f5f9" stroke="#d4dde8"/>
<text x="340" y="148" text-anchor="middle" class="label">Web</text><text x="340" y="173" text-anchor="middle" class="detail">Forge renderer</text>
<rect x="428" y="118" width="148" height="82" rx="10" fill="#f1f5f9" stroke="#d4dde8"/>
<text x="502" y="148" text-anchor="middle" class="label">iOS / Android</text><text x="502" y="173" text-anchor="middle" class="detail">Forge renderers</text>
<rect x="590" y="118" width="148" height="82" rx="10" fill="#f1f5f9" stroke="#d4dde8"/>
<text x="664" y="148" text-anchor="middle" class="label">CLI</text><text x="664" y="173" text-anchor="middle" class="detail">Go SDK</text>
<rect x="752" y="118" width="176" height="82" rx="10" fill="#f1f5f9" stroke="#d4dde8"/>
<text x="840" y="148" text-anchor="middle" class="label">Custom clients</text><text x="840" y="173" text-anchor="middle" class="detail">SDKs / HTTP</text>
<path d="M 597 201 V 230" class="link" marker-start="url(#arrow)"/>

<rect x="266" y="236" width="662" height="106" rx="12" fill="#edf4ff" stroke="#9bb9e1"/>
<text x="288" y="265" class="label">Agently server · BFF authentication</text>
<a href="https://docs.ag-ui.com/spec/1.0"><text x="288" y="293" class="detail" style="fill:#245ca0">AG-UI runs, streamed events, state and continuation</text></a>
<text x="288" y="316" class="detail">Application APIs: history, metadata, uploads, reports and management</text>
<path d="M 597 344 V 372" class="link" marker-start="url(#arrow)"/>

<rect x="32" y="236" width="198" height="222" rx="12" fill="#f6f4fc" stroke="#c9bee2"/>
<text x="52" y="266" class="label">Workspace</text>
<text x="52" y="296" class="detail">Agents and models</text><text x="52" y="320" class="detail">Knowledge and skills</text>
<text x="52" y="344" class="detail">Tools and policies</text><text x="52" y="368" class="detail">Intents and templates</text>
<text x="52" y="401" class="detail">UI metadata</text><text x="52" y="425" class="detail">Layouts and themes</text>
<path d="M 231 408 H 260" class="link"/>

<rect x="266" y="378" width="662" height="106" rx="12" fill="#eef7f4" stroke="#9dbfb2"/>
<text x="288" y="408" class="label">Agently Core · execution runtime</text>
<text x="288" y="436" class="detail">Agent orchestration · context and knowledge · model/tool loop</text>
<text x="288" y="460" class="detail">Approvals · linked agents · async work · goals and scheduler</text>
<path d="M 597 486 V 506 H 370 V 523" class="link"/>
<path d="M 597 506 V 523" class="link"/>
<path d="M 597 506 H 823 V 523" class="link"/>

<rect x="266" y="528" width="208" height="62" rx="10" fill="#f8fafc" stroke="#d4dde8"/>
<text x="370" y="553" text-anchor="middle" class="label">Providers</text><text x="370" y="576" text-anchor="middle" class="detail">Models and embeddings</text>
<rect x="488" y="528" width="218" height="62" rx="10" fill="#f8fafc" stroke="#d4dde8"/>
<text x="597" y="553" text-anchor="middle" class="label">Tools</text><text x="597" y="576" text-anchor="middle" class="detail">Internal services and MCP</text>
<rect x="720" y="528" width="208" height="62" rx="10" fill="#f8fafc" stroke="#d4dde8"/>
<text x="824" y="553" text-anchor="middle" class="label">Durable state</text><text x="824" y="576" text-anchor="middle" class="detail">SQLite / MySQL</text>
</svg>